<?xml version="1.0" encoding="utf-8"?>
<!-- Generator: Adobe Illustrator 21.1.0, SVG Export Plug-In . SVG Version: 6.00 Build 0)  -->
<svg version="1.1" id="_x35_eba6449-abe8-4f79-9022-0e5efe128a3a"
	 xmlns="http://www.w3.org/2000/svg" xmlns:xlink="http://www.w3.org/1999/xlink" x="0px" y="0px" viewBox="0 0 101.3 29"
	 style="enable-background:new 0 0 101.3 29;" xml:space="preserve">
<symbol  id="Graph" viewBox="-492.9 -182.8 928.7 390.4">
	<path d="M-298.3,7c-1.8-0.5-3.7,0.3-5.9,2.4c-2.2,2.1-4.1,4.7-5.7,7.8c-1.6,3.1-2.6,6.2-3,9.2c-0.4,3.1,0.2,5.3,2,6.7
		c15.5,3.7,30.9,7.1,46.3,10.3c15.4,3.2,30.8,5.6,46.3,7.4c20.2,17.6,39.6,35,58.2,52.1c18.6,17.2,35.3,32.8,50.3,47
		c15,14.2,27.5,26.3,37.6,36.4c10.1,10.1,16.8,17.1,20.2,21c1.4,0.5,3.1-0.1,5.1-1.8c2-1.8,4-4.1,5.8-7c1.8-2.9,3.5-6,4.9-9.2
		c1.4-3.3,2.3-6,2.6-8.3c1.6-0.7,1.9-1.8,1.1-3.4v0.3c-2.8-5.8-6.7-12.7-11.6-20.6c-4.9-7.9-10.5-16.6-16.6-26
		c-6.2-9.4-12.9-19.3-20.2-29.7c-7.3-10.4-14.7-21-22.3-31.9c-7.6-10.9-15.2-21.9-22.8-32.9c-7.7-11-15-21.7-21.9-32.2
		c-7-10.5-13.4-20.5-19.4-30.1c-6-9.6-11.1-18.3-15.4-26.3c-4.3-7.9-7.6-14.8-9.9-20.6c-2.3-5.8-3.2-10.2-2.6-13.2l2.6-4.2
		c2.1-1.8,3.2-4,3.2-6.6c0-2.6-0.7-5-2-7.1c-1.3-2.1-3.1-3.7-5.4-4.6c-2.3-1-4.7-0.7-7.1,0.7c-5.1,0.4-9.2,1.5-12.4,3.6
		c-3.2,2-5.5,4.7-7,7.9c-1.5,3.3-2.3,6.9-2.5,11c-0.2,4.1,0.1,8.4,0.8,12.9c0.7,3.9,1.7,7.8,2.9,11.9c1.2,4,2.6,8,4.2,11.7
		c1.6,3.8,3.2,7.4,4.8,10.8c1.6,3.4,3.1,6.5,4.5,9.1c11.3,19.9,23.6,39.5,37,58.9c-2.1,0.2-4.2,0.3-6.3,0.3c-2.1,0-4.1,0-6.1,0
		c-3,0-5.9,0-8.8-0.1c-2.9-0.1-5.9-0.2-8.8-0.4l-12.1-10.6h0.3l-15.6-13.7c-9.7-8.4-19.7-17.2-30-26.1c-10.3-9-20.8-17.7-31.5-26.3
		c-10.7-8.5-21.6-16.6-32.6-24.3c-11-7.7-22-14.4-32.9-20.3c-10.9-5.9-21.7-10.6-32.5-14.3c-10.7-3.6-21.2-5.7-31.4-6.2
		c-14.6-0.7-26.9,1.1-36.8,5.3c-9.9,4.2-17.8,10.2-23.5,17.8c-5.7,7.7-9.4,16.6-11.1,26.8c-1.7,10.2-1.6,20.9,0.1,31.9
		c2.1,12.3,6.3,24.7,12.5,37.1c6.2,12.4,14.3,23.6,24.2,33.5c9.9,9.9,21.3,18.1,34.3,24.6c13,6.4,27.4,9.8,43,10.2
		c12.5,0.2,22.7-2.7,30.5-8.7c7.8-6,13.5-14.5,17-25.6l0.3-1.3c0.2-1.9-0.3-4.8-1.3-8.7c-1.1-3.9-2.4-7.5-4.1-11
		c-1.7-3.4-3.5-6-5.4-7.8c-1.9-1.8-3.7-1.5-5.3,0.8c-1.4,3.3-3.2,7-5.4,10.8c-2.2,3.9-4.9,7.4-8.1,10.7c-3.2,3.3-6.8,6-11,8.3
		c-4.1,2.3-8.7,3.4-13.6,3.4c-11.8,0.4-22.7-1.6-32.6-5.8c-9.9-4.2-18.6-9.9-26-17c-7.4-7.1-13.5-15.2-18.2-24.2
		c-4.8-9-7.9-18-9.5-26.9c-1.2-7.2-1.3-14.2-0.1-20.9c1.1-6.7,3.6-12.6,7.4-17.7c3.8-5.1,9-9.2,15.7-12.1c6.7-3,14.9-4.5,24.6-4.5
		c1.2,0,2.5,0,3.8,0s2.7,0.1,4.1,0.3c11.1,0.9,23.1,4.4,35.9,10.4c12.8,6.1,26.3,13.9,40.4,23.6c14.1,9.7,28.6,20.7,43.7,33.1
		c15,12.4,30.2,25.4,45.5,38.9c-7.7-1.9-15.6-4.2-23.5-6.9c-7.9-2.6-16.1-5.8-24.6-9.5L-298.3,7z M-176.1,53.2
		c6.9,0,13.5-0.3,19.8-0.8c6.5,9.1,13.2,18.3,19.9,27.3c6.8,9.1,13.5,18.2,20.2,27.3l-29.3-26.7L-176.1,53.2z"/>
	<path d="M-46,41.2c7.4,4.6,14.8,8.1,22.2,10.7c7.4,2.6,14.2,3.4,20.3,2.5c5.5-0.9,9.9-2.6,13.3-5c3.4-2.5,6-5.5,7.8-9.2
		c1.8-3.7,2.7-7.8,2.9-12.3c0.2-4.5-0.2-9.2-1.1-14.1C18,5.5,15.6-2.4,12.3-10C7.4-20.9,1.1-31.6-6.6-42
		c-7.7-10.5-16-19.9-25.1-28.4c-9.1-8.4-18.6-15.4-28.6-21s-19.9-8.8-29.6-9.9c-6.2,0.2-11.4,1.3-15.7,3.4
		c-4.3,2.1-7.7,4.8-10.2,8.2l-1.3-5.3c-0.7-1.9-2.6-2.8-5.5-2.6c-3,0.2-6.1,1-9.4,2.5c-3.3,1.5-6.2,3.4-8.7,5.7
		c-2.5,2.3-3.7,4.6-3.6,6.9c2.3,10.7,5.6,21.6,9.9,32.5c4.3,10.9,9.3,21.8,14.9,32.7c5.6,10.9,11.7,21.8,18.2,32.7
		c6.5,10.9,13,21.7,19.5,32.5l10.6,16.9c4,6.7,8.1,13.5,12,20.5c4,7,7.7,13.8,11.4,20.5c3.6,6.7,7,13.2,10,19.4
		c3.1,6.2,5.7,12,7.8,17.3c2.8,1.4,6.1,1.4,9.9-0.1c3.8-1.5,7.2-3.8,10.3-7c3.1-3.2,5.4-6.8,7-11c1.6-4.1,1.6-8.1,0-12
		c-1.2-2.6-3.3-6.4-6.2-11.4c-2.9-4.9-6.2-10.4-9.9-16.5c-3.7-6.1-7.6-12.4-11.7-19c-4.1-6.6-8.1-12.9-12-18.9L-46,41.2z M-76.7-6.8
		c-4.1-6.5-7.9-13.2-11.6-19.9c-3.7-6.8-7.2-13.6-10.6-20.5c-0.4-1.4-0.5-2.5-0.5-3.2c-0.7-4.2-0.6-8.1,0.4-11.7
		c1-3.6,3.7-5.6,8.1-5.9c3.9-0.4,8.4,0.9,13.5,3.7c5.1,2.8,10.4,6.6,15.8,11.5c5.5,4.8,10.9,10.4,16.4,16.8
		c5.5,6.3,10.4,12.7,14.9,19.1c4.5,6.4,8.2,12.7,11.2,18.9c3,6.2,4.9,11.5,5.8,16.1c0.9,5.5-0.8,8.3-5,8.4
		c-4.1,0.2-8.6-0.5-13.6-2.1c-5-1.6-10.1-3.9-15.3-6.9c-5.2-3-10.3-6.6-15.4-10.8C-67.8,2.4-72.4-2-76.7-6.8z"/>
	<path d="M129.6,16c-0.2-1.1-0.8-1.9-2-2.5c-1.1-0.6-2.5-1.1-4.1-1.3c-1.6-0.3-3.2-0.4-4.9-0.4c-1.7,0-3.1,0.3-4.4,0.8
		c2.5-1.6,4.8-3.4,6.9-5.5c2.1-2.1,3.9-4.4,5.3-7c1.4-2.6,2.3-5.1,2.8-7.8c0.4-2.6,0.1-5.2-0.9-7.7c-0.7-1.2-1.5-2.6-2.4-4.1
		c-0.9-1.5-1.8-3-2.6-4.6c-1.9-3.3-3.9-7-5.9-10.8c-2-3.9-3.9-7.7-5.7-11.4c-1.8-3.7-3.3-7.2-4.6-10.4c-1.3-3.3-2.2-6-2.5-8.3
		c0-0.4-0.1-0.6-0.4-0.8c-0.3-0.2-0.5-0.4-0.7-0.5h1.8c5.3,1.8,10.4,4.7,15.3,8.7c4.9,4,9.7,8.7,14.4,13.9
		c4.7,5.2,9.1,10.7,13.5,16.6c4.3,5.9,8.4,11.6,12.3,17c1.4,1.4,2.5,2.6,3.2,3.7c0.7,1.1,1.4,2.2,2.1,3.4c0.7,0.9,2,1.1,4,0.7
		c1.9-0.4,3.8-1.3,5.5-2.5c1.8-1.2,3.2-2.7,4.2-4.4c1.1-1.7,1.1-3.1,0-4.4l-7.7-10.6v-0.3c-7.6-10.4-15.4-20.6-23.6-30.8
		c-8.2-10.1-17.3-19.2-27.3-27.3c-1.6-1.4-3.6-2.9-5.9-4.6c-2.4-1.7-5-3.3-7.9-4.8s-6-2.7-9.4-3.7c-3.3-1-6.8-1.4-10.3-1.2
		c-8.4,0.7-14.4,3.7-17.8,9c-3.4,5.3-4.7,11.9-3.8,19.8c-7.9-7.4-15.9-13.8-24-19.1c-8.1-5.4-15.8-8.1-23.2-8.3
		c-6.7,0.7-12,2.6-16,5.7c-4,3.1-6.9,6.7-8.8,11c-1.9,4.2-3,8.8-3.3,13.6c-0.3,4.8-0.1,9.4,0.4,13.6c0.7,3.9,1.5,7,2.4,9.5
		c1.8,6.5,4.7,13.6,8.7,21.4c4,7.7,8.9,15.5,14.5,23.2c5.6,7.7,11.8,15.2,18.6,22.4c6.8,7.2,13.9,13.6,21.5,19.3
		c7.6,5.6,15.3,10.1,23.1,13.5c7.8,3.3,15.6,5,23.4,5c2.3,0,4.5-0.2,6.6-0.5c2.1-0.4,4.4-0.9,6.9-1.6c4.2-1.4,7.4-3.7,9.6-6.7
		c2.2-3.1,3.7-6.7,4.5-10.8c0.8-4.1,1.1-8.5,0.8-13.2C131.4,25.2,130.7,20.6,129.6,16z M98.8,16c1.8,0.9,3.8,1.1,6.2,0.5
		c2.4-0.5,4.8-1.5,7.3-2.9c-0.9,0.9-1.1,1.8-0.8,2.9c0.2,0.5,0.2,1.1,0.1,1.8c-0.1,0.7,0,1.4,0.1,2.1c0.2,1.8,0.3,3.6,0.3,5.5
		c0,1.9-0.3,3.7-0.8,5.4c-0.5,1.7-1.4,3-2.6,4.1c-1.2,1.1-2.9,1.7-5,1.8c-6.5,0.2-13.2-2.2-20.1-7c-6.9-4.8-13.5-11-19.8-18.3
		C57.3,4.7,51.5-3.2,46.4-11.7c-5.2-8.4-9.3-16.1-12.3-23c-0.9-1.9-1.8-4.4-2.6-7.3c-0.9-2.9-1.5-5.8-1.8-8.6
		c-0.4-1.9-0.5-3.8-0.5-5.5c0-1.8,0.4-3.3,1.2-4.5c0.8-1.2,2-2,3.6-2.4c1.6-0.4,3.8-0.2,6.6,0.5c2.6,0.7,6,2.7,10,6.1
		c4,3.3,8.3,7.3,12.8,11.7s8.9,9.3,13.2,14.4c4.3,5.1,8,9.7,11,13.7C90-11.2,92.5-6,94.7-1c2.2,5,3.7,9.3,4.6,12.8L98.8,16z"/>
	<path d="M130.4-56.8c1.4,7.4,4.2,14.6,8.4,21.6c4.2,7,9.2,12.7,15,16.9l7.4,9.5c6,8.4,12.1,16.8,18.3,25.1
		c6.2,8.3,12.7,16.3,19.4,24c1.4,1.4,2.6,2.8,3.7,4.2c1.1,1.4,2.2,2.8,3.4,4.2c3.7,4.8,8,9.9,12.8,15.3c4.8,5.5,11.7,11.8,20.5,19
		c2.5-1.4,5.5-3.4,9-5.9c3.5-2.6,6.5-5.4,8.8-8.4c2.4-3.1,3.7-6.3,4.1-9.6c0.3-3.3-1.3-6.3-5-9l0.8,0.3c-3.5-3-6-5.3-7.5-7
		c-1.5-1.7-3.1-3.7-4.9-5.9l-4.2-5.3c-4.6-6.2-8.1-12.7-10.4-19.5c-2.4-6.9-4.2-13.6-5.4-20.3c-0.7-3.7-1.2-7.4-1.6-11.2
		c-0.4-3.8-0.7-7.6-1.1-11.5l-1.8-15.8c-1.1-7.9-3.3-15.2-6.6-21.8c-3.3-6.6-7.5-12.2-12.5-16.8c-5-4.6-10.7-8.1-16.9-10.4
		c-6.2-2.4-12.8-3.4-19.7-3c-6.9,0.5-12.7,2-17.4,4.5c-4.8,2.5-8.5,5.5-11.2,9.2c-2.7,3.7-4.5,7.9-5.4,12.7
		C129.6-67.1,129.6-62.1,130.4-56.8z M189.3-8c0.2,1.4,0.4,2.9,0.8,4.4c0.4,1.5,0.7,2.9,1.1,4.4l-11.1-14.8l-0.3-0.3
		c0.3-1.4,0.7-3.8,1.1-7.3c0.3-3.4,0.4-7,0.3-10.8c-0.2-3.8-0.7-7.4-1.5-10.8c-0.8-3.4-2.1-5.9-3.8-7.5c-1.1,2.8-2.8,4.4-5.3,4.9
		c-2.5,0.4-5,0-7.7-1.2c-2.6-1.2-5-2.9-7.1-5.1c-2.1-2.2-3.4-4.4-4-6.7c-0.2-0.9-0.2-2,0-3.3c0.2-1.3,0.4-2.6,0.8-3.8
		c1.2-2.8,3.1-4.9,5.5-6.2c2.5-1.3,4.9-2.2,7.4-2.5c2.6-0.4,5,0.1,7.1,1.3c2.1,1.2,4,2.9,5.7,5c1.7,2.1,3.1,4.6,4.2,7.4
		c1.1,2.8,2,5.8,2.5,9c0.7,6.3,1.2,13,1.6,20.1c0.4,3.7,0.7,7.6,0.9,11.6C187.9-16.4,188.4-12.2,189.3-8z"/>
	<path d="M267.1,49c-3.2-1.1-5.8-1.1-7.8,0c-2,1.1-3.3,2.6-3.8,4.6c-0.5,2-0.2,4.3,0.9,6.7c1.1,2.5,3.2,4.7,6.2,6.6
		c7.2,4.6,14.3,8.7,21.3,12.4c7,3.7,13.9,7,21,10c13.2,22.9,23.1,42.5,29.8,58.9c2.8,1.4,6.1,1.4,9.9-0.1c3.8-1.5,7.2-3.8,10.3-7
		c3.1-3.2,5.4-6.8,7-11c1.6-4.1,1.6-8.1,0-12l-7.7-13.5c11.8,2.1,23.4,3.2,34.8,3.2c1.8,0,4,0,6.9-0.1c2.8-0.1,5.1-0.2,6.9-0.4
		c0.4-2.6,0-5.5-0.9-8.6c-1-3.1-2.3-6-4.1-8.7c-1.8-2.7-3.7-5.1-5.9-7c-2.2-1.9-4.4-2.9-6.5-2.9c-1.8,0.2-3.6,0.3-5.5,0.4
		c-1.9,0.1-3.9,0.1-5.8,0.1c-6,0-12.1-0.4-18.2-1.1c-6.2-0.7-12.4-1.8-18.7-3.2c-2.5-4.2-5-8.4-7.5-12.4c-2.6-4.1-5.1-7.9-7.5-11.6
		l-2.1-3.4c-2.1-3.3-5-7.9-8.7-13.7c-3.7-5.8-7.7-12.3-12-19.4c-4.3-7.1-8.8-14.6-13.3-22.4c-4.6-7.8-8.8-15.4-12.7-22.7
		c-3.9-7.3-7.1-14-9.8-20.2c-2.6-6.2-4.2-11.1-4.8-14.8c-0.4-0.5-0.5-1-0.5-1.3c0-0.4-0.1-0.6-0.3-0.8h1.8c5.1,1.8,10.1,4.6,15,8.6
		c4.9,4,9.7,8.4,14.3,13.5c4.6,5,9,10.4,13.2,16.1c4.2,5.7,8.3,11.3,12.1,16.8h-0.3c1.1,1.6,2.2,3.1,3.4,4.6
		c1.2,1.5,2.4,2.9,3.4,4.4c0.7,1.1,1.9,1.3,3.7,0.8c1.8-0.5,3.5-1.4,5.1-2.6c1.7-1.2,3-2.7,4-4.4c1-1.7,1.1-3.1,0.4-4.4l-8.7-11.9
		c-7.2-10-15-20.2-23.4-30.5c-8.4-10.3-17.2-19.3-26.5-27.1c-1.6-1.4-3.6-2.9-6.1-4.6c-2.5-1.7-5.2-3.2-8.2-4.6
		c-3-1.4-6.2-2.6-9.5-3.6c-3.3-1-6.7-1.5-10-1.5c-3.9,0.2-7,1.1-9.5,2.9c-2.5,1.8-4.4,4.1-5.7,7c-1.3,2.9-2.1,6.2-2.4,10
		c-0.3,3.8,0,8,0.7,12.5c0.4,1.9,0.8,4,1.3,6.2c0.5,2.2,1.1,4.2,1.8,5.9c2.8,9,6.2,18,10.3,26.9c4,9,8.4,17.9,13.2,26.7
		c4.8,8.8,9.7,17.5,14.9,26.1c5.2,8.6,10.4,17.1,15.7,25.3l3.4,5.3l-17.7-9L267.1,49z"/>
	<path d="M410.2,62.5c7-1.4,12.2-4.8,15.4-10.3c3.3-5.5,5.1-11.6,5.4-18.5c1.8-2.5,3-5.5,3.7-9c0.7-3.5,1.1-7.5,1.1-11.9
		c-0.4-1.4-0.6-2.8-0.7-4.2c-0.1-1.4-0.3-3.1-0.7-5c-1.2-7.6-3.5-15.3-6.7-23.1c-3.3-7.8-7.2-15.4-11.7-22.7
		c-4.6-7.3-9.8-14.3-15.6-20.9c-5.8-6.6-11.9-12.3-18.2-17.2c-6.3-4.8-12.8-8.7-19.4-11.5c-6.6-2.8-13-4.2-19.1-4.2
		c-11.4,0.2-20.9,4-28.2,11.4c-7.4,7.4-11.3,18.8-11.6,34.3c0,1.9,0.1,4,0.3,6.2c0.2,2.2,0.4,4.5,0.8,7c1.2,7.6,3.7,15.4,7.4,23.4
		c3.7,8,8.2,15.8,13.5,23.4c5.3,7.6,11.3,14.7,18.1,21.4c6.8,6.7,13.9,12.4,21.3,17.3c7.4,4.8,14.9,8.5,22.6,11.1
		C395.3,62,402.8,63,410.2,62.5z M391.7-7.2c-1.4,0.5-2.3,1.8-2.8,3.7c-0.4,1.9-0.7,4.1-0.7,6.5c0,2.4,0.2,4.9,0.7,7.5
		c0.4,2.6,0.8,4.9,1.2,6.9c0.5,2.3,1.6,4.5,3.3,6.7c1.7,2.2,3.5,4.1,5.4,5.8c1.9,1.7,3.8,3.1,5.7,4.4c1.8,1.2,3.3,2.1,4.4,2.6
		c-0.5,0.3-1.8,0.5-3.7,0.5c-3.9-0.4-8.4-1.9-13.5-4.6c-5.1-2.7-9.9-6.1-14.5-10.2C372.5,18.2,368,13.3,364,8
		c-4.1-5.4-7.7-11-11-16.8c-3.3-5.8-6-11.6-8.2-17.3c-2.2-5.7-3.7-11-4.4-16c-1.2-6.7-1-12.3,0.8-16.8c1.8-4.5,5.5-6.9,11.4-7.3
		c4.2-0.2,8.6,0.9,13.2,3.3c4.6,2.4,9.1,5.6,13.5,9.6c4.4,4,8.7,8.8,12.8,14.1c4.1,5.4,7.9,11,11.2,16.9c3.3,5.9,6.2,11.7,8.4,17.6
		c2.3,5.8,3.8,11.2,4.5,16.1l0.5,1.3c-1.4,0-3-0.6-4.9-1.7c-1.8-1.1-3.6-2.5-5.3-4.1c-1.7-1.6-3.2-3.3-4.5-5
		c-1.3-1.8-2.2-3.3-2.8-4.8L391.7-7.2z"/>
	<g>
		<path d="M-183.9-158.5c-2.4-12.3,8.4-15.5,18.8-15.5c10.8,0,19.4,4.1,20.9,11.6c1.3,6.2-3,8.8-10.6,10.2l-15,2.6
			c-7.9,1.3-19.4,4.6-16.6,18c2.7,12.5,14.4,20.8,32,20.8c13.7,0,27.2-5,24.6-21.5h-10.2c0.3,5.4-1.2,12.7-17.7,12.7
			c-7.5,0-16.6-3.2-18.3-11.2c-0.9-4.2,1.2-7.6,9.3-9l16.2-2.9c5.2-1,19.9-3.6,16.9-17.6c-3.7-17.5-20.4-22.5-34.3-22.5
			c-15.5,0-30.3,5.4-26.3,24.3H-183.9z"/>
		<path d="M-92.5-129c19.6,0,26.6-12.4,23.5-26.9c-3.1-14.5-15.4-26.9-34.9-26.9c-19.6,0-26.5,12.4-23.4,26.9
			C-124.3-141.4-112.1-129-92.5-129z M-94.2-137.1c-13.9,0-21-9.7-22.9-18.8c-2-9.1,1.1-18.8,15-18.8s21,9.7,23,18.8
			C-77.2-146.8-80.3-137.1-94.2-137.1z"/>
		<path d="M-9.5-162.6c-7.3-15.1-17.5-20.2-30.5-20.2c-20,0-24.5,13.5-21.7,26.6c3.2,14.9,14.9,27.2,33,27.2
			c13.4,0,22.8-6,22.2-18.5h-10.2c0.3,6.5-4.1,10.5-13.1,10.5c-12.3,0-19.5-8.1-21.7-18.8c-2.3-10.8,1.4-18.8,13.7-18.8
			c8.6,0,14.1,3.7,18,12.1H-9.5z"/>
		<path d="M6.3-130.8h9.6L5.2-181.1h-9.6L6.3-130.8z M10.3-112h9.6l-2.2-10.6H8.1L10.3-112z"/>
		<path d="M24.3-146.5c3.8,12.6,13.5,17.5,28.6,17.5c10.3,0,22.6-2.6,20.2-14.3l-5.8-27.1c-0.7-3,0.4-4.3,3.4-4.3
			c1.1,0,2.4,0.2,3.5,0.4l-1.4-6.7c-2.4-0.4-5.3-0.6-7.6-0.6c-4.8,0-7.7,1.3-7.2,7c-4.9-5.2-15-8.2-23.1-8.2
			c-16.7,0-18.6,8.6-17.2,15.2c1.9,9.2,8.4,13.9,24.9,15.6l11.2,1.2c5.5,0.6,9,1.5,10,6c1.5,6.9-4.9,8.3-12.7,8.3
			c-8.3,0-15.7-2.2-17.7-10H24.3z M61.5-154.8c-1.7-1.6-4.5-2.3-10-3l-11.1-1.3c-7.7-1-12.1-3-13.2-8.3c-1-4.7,3.1-8,10.1-8
			c10.8,0,21.2,5.8,22.9,14.1L61.5-154.8z"/>
		<path d="M93.9-112h9.6l-14.7-69.1h-9.6L93.9-112z"/>
		<path d="M199.7-137.2c0.5,9.5-5.3,17.6-19.7,17.6c-16.2,0-28.5-9.3-32.4-28c-2.8-13,1.4-26.3,20.4-26.3c12,0,22.3,5.8,28,19.1
			h10.2c-4.9-15.2-20.6-27.9-40.2-27.9c-17.3,0-34,9.5-28.3,36.2c4.3,20,20.2,35.8,43.6,35.8c13.7,0,31.4-5.9,28.7-26.4H199.7z"/>
		<path d="M225.5-112h9.6l-14.7-69.1h-9.6L225.5-112z"/>
		<path d="M282.7-181.1h-9.6l1.6,7.6h-0.2c-6-7-14.5-9.3-21.7-9.3c-12.1,0-20,5.2-17.4,17.8l7.3,34.3h9.6l-6.8-32.3
			c-1.6-7.4,2.1-11.6,12.4-11.6c8.7,0,17.6,5.1,19.7,15l6.1,29h9.6L282.7-181.1z"/>
		<path d="M309.1-112h9.6l-5.6-26.4h0.2c5.1,6,13.4,8.7,20.9,8.7c15.2,0,25.2-9.7,21.7-26.6s-17.9-26.6-33-26.6
			c-7.4,0-14.7,2.9-17.4,8.2h-0.2l-1.3-6.4h-9.6L309.1-112z M331.3-137.7c-11.2,0-20.1-7-22.6-18.5c-2-9.5,1.6-18.5,14.7-18.5
			c13,0,20.4,9,22.4,18.5C348.2-144.7,342.4-137.7,331.3-137.7z"/>
	</g>
</symbol>
<title>logo-light</title>
<path d="M19.9-59.7v1.6h-0.5c-1.2,0.1-2.5-0.4-3.3-1.3c-1,0.9-2.3,1.4-3.6,1.3h-0.8v-1.5c0.4,0,0.9-0.1,1.3-0.2
	c0.5-0.2,0.8-0.5,0.8-0.8c0-0.4-0.2-0.8-0.4-1.1c-0.2-0.4-0.4-0.7-0.6-1.1H5.5c-0.3,0.6-0.5,1.2-0.6,1.8c0,1,0.7,1.5,2.2,1.4v1.5
	c-0.2,0-0.5,0.1-0.8,0.1c-0.9,0.1-1.9-0.3-2.5-1c-0.8,0.6-1.8,1-2.8,1c-0.3,0-0.7-0.1-1-0.2v-1.5c1,0,1.9-0.6,2.3-1.5
	c0.8-2,1.7-3.9,2.6-5.9C5.7-69,6.4-70.8,7-72.7c0-0.5-0.3-0.7-0.9-0.7H5.5v-1.8c0.4-0.1,0.7-0.1,1.1-0.1c1.2-0.1,2.4,0.5,3.2,1.4
	c0.4-0.5,0.8-0.8,1.4-1c0.6-0.2,1.2-0.4,1.8-0.4c0.3,0,0.7,0,1,0.1v1.7c-0.4,0-0.7,0.1-1,0.3c-0.3,0.2-0.5,0.5-0.5,0.9
	c0,0.3,0.1,0.5,0.2,0.8L18-61.2C18.6-60.1,19.2-59.7,19.9-59.7z M11.4-65.4l-2.7-5.3l-2.1,5.3H11.4z M15-61.1c0-0.6-0.1-1.2-0.4-1.7
	l-4.2-8.4c-0.3-0.3-0.6-0.6-1-0.8L15-61.1z"/>
<path d="M36.1-63.2c0,1.7-0.9,3.3-2.4,4.1c-1.5,0.8-3.1,1.3-4.8,1.2c-1.5,0-2.9-0.5-4.1-1.4c-0.4,0.4-1,0.7-1.6,0.9
	c-0.6,0.2-1.3,0.3-1.9,0.3h-0.2v-1.7c0.5-0.1,0.9-0.4,1.2-0.8c0.3-0.4,0.5-0.9,0.5-1.4v-9.2c0.1-0.6-0.1-1.3-0.4-1.8
	c-0.4-0.5-1-0.8-1.6-0.7v-1.6h1c1.2-0.1,2.4,0.2,3.3,0.9c1.3-0.8,2.9-1.2,4.4-1.1c1.5,0,2.9,0.4,4.1,1.3c1.2,0.8,2,2.1,2,3.6
	c0,1.3-0.8,2.5-2,3.1c0.8,0.3,1.5,1,1.9,1.8C35.8-65,36-64.1,36.1-63.2z M24.4-70.3c0.1-1-0.2-1.9-0.7-2.7c0.3,0.6,0.4,1.3,0.3,2
	v8.2c0.1,0.8-0.1,1.7-0.5,2.4c0.6-0.2,0.9-0.9,0.9-2V-70.3z M31.3-71.2c0-0.6-0.2-1.3-0.5-1.8c-0.4-0.5-1-0.8-1.6-0.8
	c-0.5,0-1,0.1-1.4,0.3c-0.5,0.3-0.8,0.6-0.8,1.1v4.2h0.7C30.1-68.3,31.3-69.2,31.3-71.2L31.3-71.2z M32.2-63.3
	c0-0.8-0.3-1.6-0.9-2.2c-0.6-0.6-1.4-0.9-2.3-0.9c-0.7,0-1.4,0.2-2,0.5v3.9c0,1.4,0.6,2,1.9,2c0.9,0,1.7-0.3,2.3-1
	C31.9-61.6,32.3-62.4,32.2-63.3L32.2-63.3z M32.7-71.2c-0.1-0.8-0.5-1.6-1.2-2c0.5,0.6,0.8,1.4,0.8,2.2c0,0.7-0.2,1.4-0.6,2
	C32.3-69.6,32.7-70.4,32.7-71.2L32.7-71.2z M33.6-63.3c0-0.9-0.5-1.7-1.3-2.2c0.5,0.7,0.8,1.5,0.8,2.4c0,0.9-0.3,1.7-0.9,2.4
	C33-61.4,33.5-62.3,33.6-63.3L33.6-63.3z"/>
<path d="M55.9-59.7v1.6h-0.6c-1.2,0.1-2.5-0.4-3.3-1.3c-1,0.9-2.3,1.4-3.6,1.3h-0.8v-1.5c0.4,0,0.9-0.1,1.3-0.2
	c0.5-0.2,0.8-0.5,0.8-0.8c0-0.4-0.2-0.8-0.4-1.1c-0.2-0.4-0.4-0.7-0.6-1.1h-7.3c-0.3,0.6-0.5,1.2-0.6,1.8c0,1,0.7,1.5,2.2,1.4v1.5
	c-0.2,0-0.5,0.1-0.8,0.1c-0.9,0.1-1.9-0.3-2.5-1c-0.8,0.6-1.8,1-2.8,1c-0.3,0-0.7-0.1-1-0.2v-1.5c1,0,1.9-0.6,2.3-1.5
	c0.8-2,1.7-3.9,2.6-5.9c0.9-1.8,1.6-3.6,2.1-5.5c0-0.5-0.3-0.7-0.9-0.7h-0.6v-1.8c0.4-0.1,0.7-0.1,1.1-0.1c1.2-0.1,2.4,0.5,3.2,1.4
	c0.4-0.5,0.8-0.8,1.4-1c0.6-0.2,1.2-0.4,1.8-0.4c0.3,0,0.7,0,1,0.1v1.7c-0.4,0-0.7,0.1-1,0.3c-0.3,0.2-0.5,0.5-0.5,0.9
	c0,0.3,0.1,0.5,0.2,0.8L54-61.2C54.6-60.1,55.3-59.7,55.9-59.7z M47.5-65.4l-2.7-5.3l-2.1,5.3H47.5z M51-61.1c0-0.6-0.1-1.2-0.4-1.7
	l-4.3-8.4c-0.3-0.3-0.6-0.6-1-0.8L51-61.1z"/>
<path d="M69.8-63.5c0,1.6-0.7,3.2-2.1,4.1c-1.3,1-2.9,1.5-4.5,1.5c-0.9,0-1.8-0.2-2.6-0.6c-0.4-0.2-0.9-0.4-1.3-0.6
	c-0.3,0-0.3,0.2-0.3,0.7h-1.7L57-64.6l1.7-0.1c0.4,1.1,1,2.1,1.8,3c0.7,0.9,1.7,1.6,2.9,1.7c0.7,0,1.3-0.2,1.8-0.7
	c0.5-0.4,0.8-1,0.8-1.7c0-1.2-0.8-2-2.4-2.4c-2.9-0.8-4.4-1.3-4.4-1.3c-1.6-0.8-2.5-2.4-2.4-4.2c-0.1-1.5,0.6-2.9,1.8-3.8
	c1.2-0.9,2.6-1.4,4.1-1.4c1.6,0,3.2,0.5,4.6,1.3l0.3-0.8l1.3,0.2l0.3,5.6l-1.4,0.1c-0.7-3-2-4.4-4.1-4.4c-1.5,0-2.7,1.2-2.7,2.7
	c0,0.6,0.5,1,1.4,1.4c0.9,0.4,2,0.6,3,0.8c1,0.2,1.8,0.7,2.6,1.3C69.1-66.4,69.8-65,69.8-63.5z M67.1-63.1c0-1.8-1.6-3-4.9-3.4
	c-1.1-0.1-2.1-0.6-2.9-1.4c-0.8-0.8-1.3-1.8-1.3-2.9c-0.1,0.3-0.1,0.6-0.1,0.9c0,1,0.4,2,1.2,2.6c0.8,0.6,1.7,1,2.6,1.2
	c1,0.2,1.9,0.5,2.9,0.7c0.6,0.2,1.1,0.6,1.4,1.2c0.4,0.5,0.7,1.1,0.7,1.8c0,0.2,0,0.5-0.1,0.7C67-62.1,67.1-62.6,67.1-63.1z"/>
<path d="M85.5-75v5.8l-1.7,1c0-0.9-0.2-1.8-0.4-2.7c-0.3-1.3-0.9-1.9-1.7-1.9c-0.9,0.1-1.5,0.7-1.6,1.6v9.5c0,0.5,0.1,1,0.4,1.4
	c0.3,0.5,0.8,0.7,1.3,0.7v1.6c-0.3,0.1-0.6,0.1-0.9,0.1c-1,0-1.9-0.4-2.5-1.2c-0.9,0.9-2.1,1.3-3.3,1.2h-0.6v-1.6
	c0.4-0.1,0.8-0.3,1.1-0.6c0.3-0.3,0.4-0.8,0.4-1.2v-10c0-1-0.4-1.4-1.2-1.4s-1.6,0.6-2.1,1.9c-0.3,0.9-0.5,1.9-0.6,2.9l-1.5-0.8v-6
	l0.9-0.4c0.4,0.4,0.9,0.7,1.5,0.6c0.6,0,1.1-0.2,1.6-0.4c0.5-0.3,1.1-0.4,1.7-0.4c0.8-0.1,1.5,0.3,1.9,1c0.3-0.3,0.7-0.6,1.1-0.7
	c0.4-0.2,0.9-0.3,1.4-0.3c0.6,0.1,1.2,0.2,1.7,0.5c0.4,0.2,0.8,0.4,1.3,0.5c0.4,0,0.6-0.2,0.6-0.7L85.5-75z M77.7-62.5v-7.9
	c0.1-1-0.2-1.9-0.8-2.7c0.3,0.6,0.4,1.3,0.3,2v8.2c0.1,0.8-0.1,1.7-0.5,2.4C77.3-60.7,77.7-61.3,77.7-62.5z"/>
<path d="M101.3-66.7c0.1,2.2-0.6,4.4-1.9,6.2c-1.3,1.8-3.4,2.9-5.6,2.9c-2.2,0-4.2-1.1-5.5-2.9c-1.3-1.8-2-3.9-2-6.1
	c0-2.2,0.7-4.3,2-6.1c1.3-1.8,3.4-2.9,5.6-2.9c2.2,0,4.2,1.1,5.4,2.9C100.7-71,101.4-68.9,101.3-66.7z M90.3-59.7
	c-1.3-2.2-2.1-4.7-2.1-7.3c0-2.1,0.6-4.2,1.7-6.1c-0.8,0.9-1.3,1.9-1.7,3c-0.4,1.1-0.6,2.2-0.6,3.4C87.5-64.1,88.5-61.6,90.3-59.7z
	 M96.6-66.2c0-1.4-0.1-2.8-0.4-4.2c-0.5-2-1.2-3-2.2-3c-1.2,0-2,0.9-2.5,2.8c-0.3,1.4-0.4,2.9-0.4,4.3c0,1.4,0.2,2.7,0.6,4
	c0.5,1.8,1.3,2.7,2.3,2.7C95.7-59.7,96.6-61.8,96.6-66.2z M98.5-66.2c0-2.4-0.8-4.7-2.2-6.6l0.1,0.1c0.9,2,1.4,4.3,1.4,6.5
	c0.1,2.2-0.4,4.3-1.4,6.2C97.8-61.8,98.5-64,98.5-66.2z"/>
<path d="M26.5-53.4L25-52.8c-0.1-0.6-0.6-1-1.2-1c-0.2,0-0.4,0.1-0.6,0.2c-0.1,0.1-0.2,0.3-0.2,0.5c0,0.2,0.1,0.4,0.3,0.6l1.2,0.6
	c0.5,0.2,0.9,0.4,1.3,0.6c0.3,0.2,0.6,0.5,0.8,0.8c0.2,0.4,0.3,0.8,0.3,1.2c0,0.7-0.3,1.4-0.8,1.9c-0.6,0.5-1.4,0.8-2.2,0.8
	c-1.4,0.1-2.7-0.9-2.9-2.3l1.6-0.5c0.2,0.8,0.6,1.3,1.3,1.3c0.3,0,0.6-0.1,0.8-0.2c0.2-0.2,0.3-0.4,0.3-0.7c0-0.2-0.1-0.4-0.2-0.6
	c-0.1-0.2-0.5-0.3-1-0.5c-0.5-0.1-1-0.3-1.4-0.6c-0.3-0.2-0.6-0.5-0.8-0.8c-0.2-0.4-0.3-0.8-0.3-1.2c-0.1-1.3,0.9-2.5,2.2-2.6
	c0.1,0,0.2,0,0.4,0C25.1-55.5,26.2-54.6,26.5-53.4z"/>
<path d="M33.6-51c0,2.9-1,4.3-3,4.3c-0.9,0-1.8-0.4-2.3-1.1c-0.6-1-0.9-2.1-0.8-3.2c0-2.9,1-4.3,3-4.3c0.9,0,1.8,0.4,2.3,1.1
	C33.4-53.3,33.7-52.2,33.6-51z M31.7-51c0.1-0.8-0.1-1.6-0.3-2.3c-0.1-0.3-0.4-0.6-0.8-0.6c-0.4,0-0.7,0.2-0.8,0.6
	c-0.3,0.7-0.4,1.5-0.3,2.3c-0.1,0.7,0,1.5,0.3,2.2c0.1,0.3,0.4,0.6,0.8,0.6c0.4,0,0.7-0.2,0.8-0.6C31.7-49.5,31.8-50.3,31.7-51z"/>
<path d="M39-49.8l1.7,0.1c0,0.8-0.4,1.6-0.9,2.2c-0.5,0.6-1.3,0.9-2.1,0.9c-1,0-1.9-0.4-2.4-1.2c-0.6-1-0.8-2.1-0.8-3.2
	c0-1.1,0.2-2.2,0.8-3.2c0.5-0.8,1.4-1.3,2.4-1.2c1.8,0,2.7,1.1,2.9,3.3L38.9-52c0-1.2-0.4-1.9-1.2-1.9c-0.4,0-0.7,0.2-0.9,0.6
	c-0.2,0.7-0.4,1.5-0.3,2.3c0,0.7,0.1,1.4,0.3,2.1c0.2,0.4,0.5,0.6,0.9,0.6C38.5-48.1,38.9-48.7,39-49.8z"/>
<path d="M41.8-55.2h1.8v8.4h-1.8V-55.2z"/>
<path d="M46.7-55.2h1.9l2.4,8.4h-1.9l-0.4-1.7h-2.4l-0.4,1.7h-1.7L46.7-55.2z M48.3-50l-0.8-3.4L46.7-50H48.3z"/>
<path d="M51.7-55.2h1.8v6.8h2.7v1.6h-4.6L51.7-55.2L51.7-55.2z"/>
<path d="M63.5-49.8l1.7,0.1c0,0.8-0.4,1.6-0.9,2.2c-0.5,0.6-1.3,0.9-2.1,0.9c-1,0-1.9-0.4-2.4-1.2c-0.6-1-0.8-2.1-0.8-3.2
	c0-1.1,0.2-2.2,0.8-3.2c0.5-0.8,1.4-1.3,2.4-1.2c1.8,0,2.7,1.1,2.9,3.3L63.4-52c0-1.2-0.4-1.9-1.2-1.9c-0.4,0-0.7,0.2-0.9,0.6
	c-0.2,0.7-0.4,1.5-0.3,2.3c0,0.7,0.1,1.4,0.3,2.1c0.2,0.4,0.6,0.7,1,0.8C63-48.1,63.3-48.7,63.5-49.8z"/>
<path d="M66.3-55.2h1.8v6.8h2.7v1.6h-4.5V-55.2z"/>
<path d="M71.7-55.2h1.8v4.8c0,0.5,0,0.9,0.1,1.4c0,0.2,0.2,0.5,0.4,0.6c0.2,0.1,0.5,0.2,0.7,0.2c0.2,0,0.5-0.1,0.7-0.2
	c0.2-0.2,0.3-0.4,0.3-0.6c0-0.2,0.1-0.7,0.1-1.4v-4.8h1.5v4.7c0,0.7-0.1,1.4-0.2,2.1c-0.1,0.5-0.4,0.9-0.8,1.2
	c-0.5,0.3-1.2,0.5-1.8,0.5c-0.6,0-1.2-0.1-1.7-0.4c-0.4-0.2-0.7-0.6-0.9-1c-0.2-0.7-0.4-1.5-0.3-2.3v-4.8H71.7z"/>
<path d="M79-55.2h2.9c0.5,0,1,0.1,1.5,0.2c0.4,0.1,0.7,0.4,0.9,0.7c0.2,0.4,0.3,0.8,0.3,1.3c0.1,0.8-0.4,1.5-1.2,1.8
	c0.9,0.2,1.5,1.1,1.4,2.1c0,0.5-0.1,1-0.4,1.4c-0.3,0.3-0.6,0.6-1,0.8c-0.5,0.1-1.1,0.2-1.6,0.2h-2.9L79-55.2L79-55.2z M80.7-51.8
	h0.6c0.6,0,1-0.1,1.1-0.3c0.2-0.2,0.2-0.4,0.2-0.7c0-0.2-0.1-0.5-0.2-0.7c-0.3-0.2-0.6-0.3-1-0.3h-0.7V-51.8z M80.7-48.2h0.9
	c0.8,0,1.3-0.4,1.3-1.1c0-0.3-0.1-0.7-0.3-0.9c-0.3-0.2-0.6-0.3-1-0.3h-0.9V-48.2z"/>
<use xlink:href="#Graph"  width="928.7" height="390.4" id="XMLID_1_" x="-492.9" y="-182.8" transform="matrix(6.917194e-02 0 0 -6.917194e-02 35.0957 14.3829)" style="overflow:visible;"/>
<path d="M98.2,0.9c0-0.4-0.6-0.3-1.6-0.3c-2-0.1-5.2,0.7-7.6,3.4c-0.3,0.3-0.7,0.5-1.1,0.5c-0.5,0-1,0-1.6,0c0,0.2,0.1,0.4,0.1,0.5
	c-0.1,0.2-0.3,0.5-0.4,0.8c0-0.5,0-0.9-0.2-1.3c-0.4,0-0.8,0-1.2,0h-0.1c0,0-0.1,0-0.1,0h0c0,0-0.1,0-0.1,0h-0.1c-0.4,0-0.8,0-1.2,0
	c-0.2,0.4-0.2,0.8-0.2,1.3c-0.2-0.3-0.3-0.5-0.4-0.8c0-0.2,0.1-0.4,0.1-0.5c-0.5,0-1.1,0-1.6,0c-0.4,0-0.8-0.2-1.1-0.5
	c-2.4-2.7-5.6-3.4-7.6-3.4c-0.9,0-1.5,0-1.6,0.3c-0.1,1,0,0.9,0,1.7c0,0.3,0.2,0.5,0.3,0.6c0.1,0.2,0.2,0.5,0.2,0.7l-0.1,1.3
	c0,0.2,0,0.5,0.1,0.7l1.1,2.4c0.1,0.1,0.1,0.3,0.1,0.4l0.3,2.4c0,0.2,0.1,0.4,0.2,0.6l0.4,0.7c0.2,0.3,0.3,0.8,0.1,1.2
	c-0.4,1.1-1.1,3.6-1.2,4.6c-0.1,1.3,1.5,2.8,2.7,3.9c0.2,0.1,0.3,0.3,0.4,0.5c0.7,1.7,2.4,2.9,5.7,5.3c1.2,0.9,2.4,1.2,3.3,1.1h0
	c0,0,0,0,0.1,0c0,0,0,0,0.1,0h0c0,0,0,0,0.1,0c0,0,0,0,0.1,0h0c0,0,0,0,0,0c1,0,2.1-0.2,3.3-1.1c3.3-2.4,5-3.6,5.7-5.3
	c0.1-0.2,0.2-0.4,0.4-0.5c1.2-1,2.8-2.6,2.7-3.9c-0.1-1-0.8-3.5-1.2-4.6c-0.1-0.4-0.1-0.8,0.1-1.2l0.4-0.7c0.1-0.2,0.2-0.4,0.2-0.6
	l0.3-2.4c0-0.1,0.1-0.3,0.1-0.4l1.1-2.4c0.1-0.2,0.1-0.4,0.1-0.7L97.8,4c0-0.3,0-0.5,0.2-0.7c0.1-0.2,0.3-0.4,0.3-0.6
	C98.2,1.8,98.3,1.8,98.2,0.9z M74.8,10.4c0,0.1-0.1,0.1-0.1,0.2c0,0,0,0.1-0.1,0.1c0,0,0,0.1,0,0.1v0c0,0,0,0.1,0,0.1
	c0,0,0,0.1,0,0.1c0,0,0,0,0,0.1c0,0,0,0.1,0,0.1c0,0.1,0,0.2,0,0.3c0,0,0,0.1,0,0.1c0,0,0,0.1,0,0.1c0,0,0,0,0,0.1c0,0,0,0,0,0.1
	c0,0.1,0,0.1,0,0.2c0,0.1,0,0.1,0,0.2c0,0,0,0.1,0,0.1c0,0,0,0.1,0,0.1c0,0,0,0,0,0.1c0,0,0,0,0,0c0,0,0,0,0,0l-0.1,0c0,0,0,0,0,0
	c0,0-0.1-0.1-0.1-0.2c0,0,0,0,0-0.1c0,0,0,0,0,0c0,0,0,0,0-0.1c0,0,0,0,0-0.1c0,0,0-0.1-0.1-0.1c0,0,0,0,0-0.1c0,0,0,0,0,0
	c0,0,0,0,0,0c0,0,0,0,0,0c0,0,0,0,0,0c0,0,0,0,0,0c0,0,0,0,0,0c0,0,0,0,0,0c0,0,0,0,0,0c0,0,0-0.1-0.1-0.1c0,0,0,0,0-0.1
	c0,0,0-0.1,0-0.1c0,0,0,0,0,0c0,0,0,0,0,0c0,0,0-0.1,0-0.1c0,0,0,0,0,0c0,0,0,0,0,0c0,0,0-0.1,0-0.1c0,0,0,0,0-0.1
	c0-0.1,0-0.1,0-0.2c0-0.1,0-0.1,0-0.2c0-0.1,0-0.1,0-0.2c0-0.1,0-0.2,0-0.3c0-0.1,0-0.2,0-0.2c0-0.1,0-0.1,0-0.2c0-0.1,0-0.1,0-0.2
	c0,0,0,0,0-0.1c0-0.1,0-0.1,0-0.1c0,0,0,0,0,0c0,0,0-0.1,0-0.1c0,0,0-0.1,0-0.1c0-0.1,0-0.1,0-0.1c0,0,0-0.1,0-0.1c0,0,0-0.1,0-0.1
	c0,0,0-0.1,0-0.1c-0.1-0.1-0.1-0.2-0.2-0.3c0,0,0-0.1,0-0.1c0-0.1-0.1-0.2-0.1-0.3C73,8,73,7.9,73,7.9c0-0.1-0.1-0.3-0.1-0.4
	c0,0,0-0.1,0-0.1c0-0.1,0-0.1-0.1-0.2c0-0.1-0.1-0.3-0.1-0.4c0-0.1-0.1-0.2-0.1-0.3c0-0.1-0.1-0.2-0.1-0.3c0,0,0-0.1,0-0.1
	c0,0,0-0.1,0-0.1c0,0,0-0.1,0-0.1c0,0,0,0,0,0c0,0,0-0.1,0-0.1c0-0.1-0.1-0.2-0.1-0.3c0,0,0,0,0-0.1c0-0.1,0-0.2,0-0.2c0,0,0,0,0,0
	c0,0,0,0,0,0c0,0,0,0,0,0c0,0,0,0,0,0c0,0,0,0,0,0.1c0,0,0,0,0,0c0,0,0,0,0,0c0,0,0,0,0,0c0,0,0,0,0,0c0.1,0.1,0.2,0.2,0.4,0.2
	c0,0,0,0,0,0c0,0,0,0,0,0c0,0-0.1-0.1-0.1-0.1c0,0,0,0,0,0c0,0,0,0-0.1-0.1c0,0-0.1-0.1-0.1-0.1c0,0,0,0,0,0c0,0,0-0.1-0.1-0.1
	c0,0,0-0.1-0.1-0.1c0,0,0,0,0,0c0,0,0,0,0,0c0,0,0,0,0,0c0,0,0,0,0,0c0,0,0,0,0,0c0,0,0,0,0,0c0,0,0,0,0,0c0,0,0,0,0-0.1
	c0,0,0,0,0,0c0,0,0,0,0-0.1c0,0,0-0.1,0-0.1c0,0,0,0,0-0.1c0,0,0-0.1,0-0.1c0,0,0,0,0,0c0,0,0,0,0-0.1c0,0,0-0.1,0-0.1
	c0,0,0,0,0-0.1c0-0.1,0-0.1,0-0.2c0-0.1,0-0.1,0-0.2c0,0,0-0.1,0-0.1c0-0.1,0-0.2,0-0.3c0-0.2-0.1-0.3-0.1-0.4
	c-0.2-0.5-0.5-0.8-0.4-1.2c0,0,0,0,0,0c0,0,0,0,0,0c0,0,0,0,0,0c0,0,0,0,0-0.1c0,0,0,0,0,0c0,0,0,0,0-0.1c0,0,0,0,0,0c0,0,0,0,0-0.1
	c0-0.1,0-0.2,0-0.2c0,0,0,0,0,0c0,0,0,0,0,0c0,0,0,0,0,0c0,0,0,0,0,0h0L71.6,1c0.3,0.1,0.6,0.4,1,0.7c0,0,0.1,0.1,0.1,0.1h0
	c0,0,0.1,0.1,0.1,0.1c0,0,0,0,0.1,0.1c0,0,0,0,0.1,0.1c0.1,0.1,0.2,0.3,0.4,0.4c0.1,0.1,0.2,0.3,0.3,0.4c0,0,0,0,0,0.1
	c0,0,0,0,0,0.1c0,0,0,0,0,0.1c0,0.1,0.1,0.1,0.1,0.2c0,0.1,0.1,0.1,0.1,0.2c0.1,0.1,0.2,0.2,0.2,0.3c0,0.1,0.1,0.1,0.1,0.2
	c0,0,0,0.1,0,0.1c0,0.1,0.1,0.2,0.1,0.2c0,0.1,0.1,0.2,0.1,0.2c0,0,0,0.1,0.1,0.1c0,0,0,0.1,0.1,0.1c0,0,0,0.1,0,0.1
	c0,0.1,0.1,0.1,0.1,0.2c0.1,0.2,0.2,0.4,0.3,0.6c0,0,0,0,0,0c0,0,0,0,0,0c0,0,0,0,0,0.1c0,0.1,0.1,0.1,0.1,0.2c0,0,0,0.1,0.1,0.1
	c0,0,0,0.1,0.1,0.1c0,0,0,0,0,0c0,0,0.1,0.1,0.1,0.1c0,0,0,0,0,0c0,0,0.1,0.1,0.1,0.1c0,0,0.1,0.1,0.1,0.1c0.4,0.4,0.9,0.7,1.3,0.9
	c0,0,0,0,0.1,0c0.1,0,0.1,0.1,0.2,0.1c0.1,0,0.1,0.1,0.2,0.1c0,0,0,0,0.1,0c0,0,0,0,0.1,0c0.1,0,0.1,0,0.1,0.1c0,0,0,0.1-0.1,0.2
	c0,0,0,0,0,0.1c0,0,0,0,0,0c0,0,0,0,0,0c0,0,0,0-0.1,0.1c0,0,0,0-0.1,0.1c0,0,0,0,0,0c0,0,0,0-0.1,0.1c0,0,0,0,0,0h0c0,0,0,0,0,0h0
	c0,0,0,0,0,0l0,0h0c0,0,0,0,0,0c0,0,0,0,0,0c0,0,0,0,0,0h0c0,0,0,0,0,0c0,0-0.1,0.1-0.1,0.1h0c0,0,0,0,0,0c0,0,0,0,0,0c0,0,0,0,0,0
	c0,0,0,0,0,0c0,0,0,0,0,0c0,0,0,0,0,0h0c0,0,0,0,0,0c0,0,0,0,0,0c0,0,0,0,0,0c0,0,0,0,0,0c0,0,0,0,0,0c0,0,0,0,0,0
	c-0.1,0.1-0.6,0.1-1.2-0.4c0,0-0.1,0-0.1-0.1c0,0,0,0,0,0h0c0,0,0.1,0.1,0.1,0.1c0,0,0,0,0,0c0,0,0,0.1,0.1,0.1c0,0,0,0,0,0
	c0,0,0,0.1,0.1,0.1c0,0,0,0,0,0c0,0,0,0.1,0,0.1c0,0,0,0,0,0.1c0,0,0,0.1,0,0.1c0,0,0,0.1,0,0.1c0,0,0,0.1,0,0.1c0,0,0,0.1,0,0.1
	c0,0,0,0.1,0,0.1c0,0,0,0,0,0c0,0,0,0,0,0c0,0,0,0,0,0c0,0,0,0,0,0c0,0,0,0,0,0c0,0,0,0,0,0c0,0,0,0,0,0c-0.2,0.2-0.5,0.4-0.8,0.7
	c0,0,0,0,0,0c0,0,0,0,0,0C75,10.2,74.9,10.3,74.8,10.4z M81.8,19.5c0,0-0.4-0.4-2-0.3c-1.6,0-2.9-0.7-2.9-0.7S76,18,75.6,17.1
	c-0.4-1-0.2-1.6-0.2-1.6s0.1,0.2,0.1,0c0.1-0.2-0.4-0.5-0.4-0.5s-0.1-0.2,0.1-0.4c0,0,0.3-0.3,1.3-0.2c1,0.1,2.5,0.5,3.6,1.5
	c0,0,1.6,1.3,1.7,3.3V19.5z M85.9,25.8l-0.3,0.3c0,0-0.1,0-0.2,0l0-0.2c0-0.1-0.1-0.1-0.2,0l-0.5,0.5c0,0,0,0.1,0,0.1l0.3,0.1
	c0,0,0.1,0.1,0,0.1l-0.5,0.6c-0.1,0.1-0.3,0.1-0.4,0l-0.5-0.6c0,0,0-0.1,0-0.1l0.3-0.1c0.1,0,0.1-0.1,0-0.1l-0.5-0.5
	c0,0-0.1,0-0.2,0l0,0.2c0,0.1-0.1,0.1-0.2,0l-0.3-0.3c-0.1-0.1,0-0.4,0.2-0.4h2.4C85.8,25.5,86,25.7,85.9,25.8z M84.5,12.4
	c-0.7,0-1.2-0.4-1.4-1.1c0-0.1,0-0.1,0-0.2c0-0.1,0-0.2,0.1-0.2c0.2-0.1,0.5-0.1,0.7-0.1c0.2,0,0.4,0,0.5,0c0.4,0,0.8,0,1.1,0.1
	c0.3,0.1,0.3,0.1,0.2,0.4C85.7,11.9,85.2,12.4,84.5,12.4z M85.7,13.2c0,0.5-0.5,1.1-1.3,1.1c-0.6,0-1.2-0.6-1.2-1.1
	c0.3,0.5,0.7,0.7,1.3,0.7C85,13.8,85.5,13.7,85.7,13.2z M85.2,9.6C84.5,10,83.5,9.7,83.1,9c-0.4-0.7-0.1-1.7,0.6-2.1
	c0.7-0.4,1.7-0.1,2.1,0.6C86.2,8.2,86,9.2,85.2,9.6z M93.8,15c0,0-0.5,0.3-0.4,0.5c0.1,0.2,0.1,0,0.1,0s0.2,0.6-0.2,1.6
	c-0.4,1-1.3,1.4-1.3,1.4s-1.3,0.7-2.9,0.7c-1.6,0-2,0.3-2,0.3v-0.3c0.1-2,1.7-3.3,1.7-3.3c1-1.1,2.5-1.5,3.6-1.5
	c1-0.1,1.3,0.2,1.3,0.2C93.9,14.8,93.8,15,93.8,15z M97.3,2.3c0,0,0,0.1-0.1,0.1c0,0,0,0,0,0c0,0.1-0.1,0.2-0.1,0.3c0,0,0,0,0,0.1
	c0,0,0,0,0,0c0,0,0,0.1-0.1,0.1C97,3,97,3.1,96.9,3.3c0,0.1,0,0.2,0,0.3c0,0,0,0,0,0.1c0,0.1,0,0.1,0,0.2c0,0.1,0,0.2,0,0.2
	c0,0,0,0,0,0.1c0,0,0,0.1,0,0.1c0,0,0,0,0,0.1c0,0,0,0,0,0c0,0,0,0.1,0,0.1c0,0,0,0,0,0.1c0,0,0,0.1,0,0.1c0,0,0,0,0,0.1
	c0,0,0,0,0,0c0,0,0,0,0,0.1c0,0,0,0,0,0c0,0,0,0,0,0c0,0,0,0,0,0c0,0,0,0,0,0c0,0,0,0,0,0c0,0,0,0,0,0c0,0,0,0,0,0
	c0,0,0,0.1-0.1,0.1c0,0,0,0.1-0.1,0.1c0,0,0,0,0,0c0,0-0.1,0.1-0.1,0.1c0,0,0,0-0.1,0.1c0,0,0,0,0,0c0,0.1-0.1,0.1-0.1,0.1
	c0,0,0,0,0,0c0,0,0,0,0,0c0.2,0,0.3-0.1,0.4-0.2c0,0,0,0,0,0c0,0,0,0,0,0c0,0,0,0,0,0c0,0,0,0,0,0c0,0,0,0,0-0.1c0,0,0,0,0,0
	c0,0,0,0,0,0c0,0,0,0,0,0c0,0,0,0,0,0c0,0,0,0,0,0c0,0.1,0.1,0.1,0,0.2c0,0,0,0,0,0.1c0,0.1-0.1,0.2-0.1,0.3c0,0,0,0.1,0,0.1
	c0,0,0,0,0,0c0,0,0,0.1,0,0.1c0,0,0,0.1,0,0.1c0,0,0,0.1,0,0.1c0,0.1-0.1,0.2-0.1,0.3c0,0,0,0,0,0.1c0,0,0,0.1-0.1,0.1
	c0,0,0,0,0,0.1c0,0.1-0.1,0.2-0.1,0.4c0,0.1,0,0.1-0.1,0.2c0,0,0,0.1,0,0.1C96,7.6,96,7.7,96,7.9c0,0.1,0,0.1-0.1,0.2
	c0,0.1-0.1,0.2-0.1,0.3c0,0,0,0.1,0,0.1c0,0.1-0.1,0.2-0.2,0.3c0,0,0,0,0,0c0,0,0,0,0,0.1c0,0,0,0,0,0.1c0,0,0,0,0,0.1
	c0,0,0,0.1,0,0.1c0,0,0,0.1,0,0.1c0,0,0,0.1,0,0.1c0,0,0,0.1,0,0.1c0,0,0,0,0,0c0,0,0,0.1,0,0.1c0,0,0,0,0,0.1c0,0.1,0,0.1,0,0.2
	c0,0.1,0,0.1,0,0.2c0,0.1,0,0.2,0,0.2c0,0.1,0,0.2,0,0.3c0,0.1,0,0.1,0,0.2c0,0,0,0.1,0,0.1c0,0,0,0.1,0,0.1c0,0.1,0,0.1,0,0.2
	c0,0,0,0,0,0.1c0,0,0,0.1,0,0.1c0,0,0,0,0,0c0,0,0,0,0,0c0,0,0,0.1,0,0.1c0,0,0,0,0,0c0,0,0,0,0,0c0,0,0,0,0,0c0,0,0,0,0,0
	c0,0,0,0.1,0,0.1c0,0,0,0,0,0c0,0,0,0,0,0c0,0,0,0,0,0c0,0,0,0,0,0c0,0,0,0,0,0c0,0,0,0,0,0.1c0,0,0,0,0,0.1c0,0,0,0,0,0.1
	c0,0-0.1,0.1-0.1,0.1c0,0,0,0,0,0.1c0,0,0,0,0,0.1c0,0,0,0,0,0c0,0,0,0,0,0.1c-0.1,0.1-0.1,0.2-0.1,0.2l-0.1,0c0,0,0,0,0,0
	c0,0,0,0,0,0c0,0,0,0,0-0.1c0,0,0-0.1,0-0.1c0,0,0-0.1,0-0.1c0-0.1,0-0.1,0-0.2c0-0.1,0-0.1,0-0.2c0,0,0,0,0-0.1c0,0,0,0,0-0.1
	c0,0,0-0.1,0-0.1c0,0,0-0.1,0-0.1c0-0.1,0-0.2,0-0.3c0,0,0-0.1,0-0.1c0,0,0,0,0-0.1c0-0.1,0-0.1-0.1-0.2v0c0,0,0-0.1,0-0.1
	c0,0,0-0.1-0.1-0.1c0-0.1-0.1-0.1-0.1-0.2c-0.1-0.1-0.2-0.3-0.3-0.4c0,0,0,0-0.1-0.1c-0.3-0.3-0.6-0.5-0.8-0.7c0,0,0,0,0,0
	c0,0,0,0,0,0c0,0,0,0,0,0c0,0,0,0,0,0c0,0,0,0,0,0c0,0,0,0,0,0c0,0,0-0.1,0-0.1c0,0,0-0.1,0-0.1c0,0,0-0.1,0-0.1c0,0,0-0.1,0-0.1
	c0,0,0-0.1,0-0.1c0,0,0,0,0-0.1c0,0,0-0.1,0-0.1c0,0,0,0,0,0c0,0,0-0.1,0.1-0.1l0,0c0,0,0-0.1,0.1-0.1c0,0,0,0,0,0
	c0,0,0-0.1,0.1-0.1l0,0c0,0-0.1,0-0.1,0.1c-0.6,0.5-1.1,0.6-1.2,0.4c0,0,0,0,0,0c0-0.1-0.2-0.3-0.4-0.5c0,0,0,0-0.1-0.1
	c0,0,0,0-0.1-0.1c0,0,0,0,0,0c0,0,0,0,0,0c0,0,0,0,0-0.1c-0.1-0.1-0.1-0.1-0.1-0.2c0,0,0,0,0,0c0,0,0,0,0.1-0.1c0,0,0,0,0.1,0
	c0,0,0,0,0.1,0c0.1,0,0.1-0.1,0.2-0.1c0.1,0,0.1-0.1,0.2-0.1c0,0,0,0,0.1,0c0.4-0.2,0.9-0.5,1.3-0.9c0,0,0.1-0.1,0.1-0.1
	c0.1-0.1,0.1-0.1,0.2-0.2c0,0,0,0,0,0c0,0,0-0.1,0.1-0.1c0,0,0.1-0.1,0.1-0.1c0-0.1,0.1-0.1,0.1-0.2c0,0,0,0,0-0.1c0,0,0,0,0,0
	c0,0,0,0,0,0C93.8,5.3,93.9,5.1,94,5c0-0.1,0.1-0.1,0.1-0.2c0,0,0-0.1,0-0.1c0,0,0-0.1,0.1-0.1c0,0,0-0.1,0.1-0.1
	c0-0.1,0.1-0.2,0.1-0.2c0-0.1,0.1-0.2,0.1-0.2c0,0,0-0.1,0-0.1c0-0.1,0.1-0.1,0.1-0.2c0.1-0.1,0.1-0.2,0.2-0.3
	c0-0.1,0.1-0.1,0.1-0.2c0-0.1,0.1-0.1,0.1-0.2c0,0,0,0,0-0.1c0.1-0.2,0.2-0.3,0.4-0.5c0.1-0.1,0.2-0.3,0.4-0.4v0L96,2
	c0,0,0,0,0.1-0.1c0,0,0.1-0.1,0.1-0.1h0c0,0,0.1-0.1,0.1-0.1c0.4-0.3,0.8-0.6,1-0.7l0.2,0.1c0,0,0,0,0,0c0,0,0,0,0,0c0,0,0,0,0,0
	c0,0,0,0,0,0c0,0,0,0,0,0c0,0.1,0,0.2,0,0.3c0,0,0,0,0,0.1c0,0,0,0,0,0c0,0,0,0,0,0c0,0,0,0,0,0C97.5,1.9,97.5,2.1,97.3,2.3
	C97.4,2.3,97.4,2.3,97.3,2.3z"/>
</svg>
